<?xml version="1.0" encoding="utf-8"?>
<!-- Generator: Adobe Illustrator 22.1.0, SVG Export Plug-In . SVG Version: 6.00 Build 0)  -->
<svg version="1.1"
	 id="Calque_1" xmlns:cc="http://creativecommons.org/ns#" xmlns:dc="http://purl.org/dc/elements/1.1/" xmlns:inkscape="http://www.inkscape.org/namespaces/inkscape" xmlns:rdf="http://www.w3.org/1999/02/22-rdf-syntax-ns#" xmlns:sodipodi="http://sodipodi.sourceforge.net/DTD/sodipodi-0.dtd" xmlns:svg="http://www.w3.org/2000/svg"
	 xmlns="http://www.w3.org/2000/svg" xmlns:xlink="http://www.w3.org/1999/xlink" x="0px" y="0px" viewBox="0 0 100 125"
	 style="enable-background:new 0 0 100 125;" xml:space="preserve">
<style type="text/css">
	.st0{fill:#FFFFFF;}
</style>
<g transform="translate(0,-952.36218)">
	<path class="st0" d="M43,963.4c-17.6,0-32,14.4-32,32c0,17.6,14.4,32,32,32c7,0,13.5-2.3,18.8-6.1l18.7,18.7c2,2,5.1,2,7.1,0
		c2-2,2-5.1,0-7.1l-18.7-18.6c3.9-5.3,6.1-11.8,6.1-18.8C75,977.7,60.6,963.4,43,963.4z M43,973.4c12.2,0,22,9.8,22,22
		c0,12.2-9.8,22-22,22c-12.2,0-22-9.8-22-22C21,983.1,30.8,973.4,43,973.4z"/>
</g>
</svg>
