<?xml version="1.0" encoding="utf-8"?>
<!-- Generator: Adobe Illustrator 22.1.0, SVG Export Plug-In . SVG Version: 6.00 Build 0)  -->
<svg version="1.1" id="Calque_1" xmlns="http://www.w3.org/2000/svg" xmlns:xlink="http://www.w3.org/1999/xlink" x="0px" y="0px"
	 viewBox="0 0 100 125" style="enable-background:new 0 0 100 125;" xml:space="preserve">
<style type="text/css">
	.st0{fill:#FEFEFE;}
</style>
<title>Star 10.2</title>
<desc>Created with Sketch.</desc>
<g>
	<g>
		<path class="st0" d="M49,75.6c0.6-0.4,1.5-0.4,2,0l11.9,8.7c2.2,1.6,3.3,0.8,2.5-1.8l-4.6-14c-0.2-0.7,0.1-1.5,0.6-1.9l11.9-8.6
			c2.2-1.6,1.8-2.9-0.9-2.9l-14.7,0c-0.7,0-1.4-0.5-1.6-1.2l-4.5-14c-0.8-2.6-2.2-2.6-3.1,0l-4.5,14c-0.2,0.7-0.9,1.2-1.6,1.2
			l-14.7,0c-2.8,0-3.2,1.3-0.9,2.9l11.9,8.6c0.6,0.4,0.8,1.3,0.6,1.9l-4.6,14c-0.9,2.6,0.2,3.4,2.5,1.8L49,75.6z M50,77.9l-11.4,8.3
			c-4.2,3.1-7.9,0.3-6.3-4.6l4.4-13.5l-11.5-8.3c-4.2-3-2.8-7.4,2.4-7.4l14.2,0l4.3-13.5c1.6-4.9,6.2-4.9,7.8,0l4.3,13.5l14.2,0
			c5.2,0,6.6,4.4,2.4,7.4l-11.5,8.3l4.4,13.5c1.6,4.9-2.1,7.6-6.3,4.6L50,77.9z"/>
		<path class="st0" d="M50,111.1c-26.8,0-48.6-21.7-48.6-48.6S23.2,13.9,50,13.9s48.6,21.7,48.6,48.6S76.8,111.1,50,111.1z
			 M50,108.6c25.4,0,46.1-20.6,46.1-46.1S75.4,16.4,50,16.4S3.9,37.1,3.9,62.5S24.6,108.6,50,108.6z"/>
	</g>
</g>
</svg>
