<?xml version="1.0" encoding="utf-8"?>
<!-- Generator: Adobe Illustrator 21.1.0, SVG Export Plug-In . SVG Version: 6.00 Build 0)  -->
<svg version="1.1"
	 id="Calque_1" xmlns:cc="http://creativecommons.org/ns#" xmlns:dc="http://purl.org/dc/elements/1.1/" xmlns:inkscape="http://www.inkscape.org/namespaces/inkscape" xmlns:rdf="http://www.w3.org/1999/02/22-rdf-syntax-ns#" xmlns:sodipodi="http://sodipodi.sourceforge.net/DTD/sodipodi-0.dtd" xmlns:svg="http://www.w3.org/2000/svg"
	 xmlns="http://www.w3.org/2000/svg" xmlns:xlink="http://www.w3.org/1999/xlink" x="0px" y="0px" viewBox="0 0 100 98.4"
	 style="enable-background:new 0 0 100 98.4;" xml:space="preserve">
<style type="text/css">
	.st0{fill:#FFFFFF;}
</style>
<g transform="translate(0,-952.36218)">
	<path class="st0" d="M42.1,953.5c-19.8,0-36.1,16.2-36.1,36.1s16.2,36.1,36.1,36.1c7.9,0,15.2-2.6,21.2-6.9l21.1,21.1
		c2.3,2.3,5.7,2.3,8,0c2.3-2.3,2.3-5.7,0-8l-21.1-21c4.4-6,6.9-13.3,6.9-21.2C78.2,969.6,61.9,953.5,42.1,953.5z M42.1,964.8
		c13.7,0,24.8,11,24.8,24.8s-11,24.8-24.8,24.8s-24.8-11-24.8-24.8C17.3,975.7,28.4,964.8,42.1,964.8z"/>
</g>
</svg>
